<svg width="16" height="16" viewBox="0 0 16 16" fill="none" xmlns="http://www.w3.org/2000/svg">
<path fill-rule="evenodd" clip-rule="evenodd" d="M1.15164 1.15162C1.37667 0.926659 1.68184 0.80028 2.00004 0.80028C2.31823 0.80028 2.6234 0.926659 2.84844 1.15162L8.00004 6.30322L13.1516 1.15162C13.2623 1.03701 13.3947 0.945593 13.5412 0.882703C13.6876 0.819812 13.845 0.786708 14.0044 0.785324C14.1637 0.783939 14.3217 0.814301 14.4692 0.874638C14.6167 0.934975 14.7506 1.02408 14.8633 1.13675C14.976 1.24942 15.0651 1.3834 15.1254 1.53088C15.1858 1.67835 15.2161 1.83637 15.2147 1.99571C15.2134 2.15504 15.1803 2.3125 15.1174 2.45891C15.0545 2.60531 14.9631 2.73773 14.8484 2.84842L9.69684 8.00002L14.8484 13.1516C15.067 13.3779 15.188 13.6811 15.1852 13.9957C15.1825 14.3103 15.0563 14.6113 14.8338 14.8338C14.6113 15.0563 14.3104 15.1825 13.9957 15.1852C13.6811 15.188 13.378 15.067 13.1516 14.8484L8.00004 9.69682L2.84844 14.8484C2.62211 15.067 2.31899 15.188 2.00436 15.1852C1.68972 15.1825 1.38874 15.0563 1.16625 14.8338C0.943765 14.6113 0.817562 14.3103 0.814828 13.9957C0.812093 13.6811 0.933047 13.3779 1.15164 13.1516L6.30324 8.00002L1.15164 2.84842C0.926672 2.62339 0.800293 2.31822 0.800293 2.00002C0.800293 1.68183 0.926672 1.37666 1.15164 1.15162Z" fill="#1B1D1F"/>
</svg>
